<?xml version="1.0" encoding="UTF-8" standalone="no"?>
<!DOCTYPE svg PUBLIC "-//W3C//DTD SVG 1.1//EN" "http://www.w3.org/Graphics/SVG/1.1/DTD/svg11.dtd">
<svg width="100%" height="100%" viewBox="0 0 599 173" version="1.1" xmlns="http://www.w3.org/2000/svg" xmlns:xlink="http://www.w3.org/1999/xlink" xml:space="preserve" xmlns:serif="http://www.serif.com/" style="fill-rule:evenodd;clip-rule:evenodd;stroke-linejoin:round;stroke-miterlimit:1.41421;">
    <g transform="matrix(4.16667,0,0,4.16667,-26866.8,-9858.07)">
        <g transform="matrix(1,0,0,1,4723.06,1252.14)">
            <g transform="matrix(0.10775,0,0,0.10775,1687.52,1045.33)">
                <g transform="matrix(19.486,0,0,19.486,-20489.3,-12334)">
                    <path d="M1084.86,678.649C1084.03,678.649 1083.31,678.913 1082.81,679.417L1082.81,676.297L1080.94,676.297L1080.94,685.201L1082.81,685.201L1082.81,682.009C1082.81,680.821 1083.46,680.269 1084.36,680.269C1085.18,680.269 1085.66,680.749 1085.66,681.793L1085.66,685.201L1087.54,685.201L1087.54,681.505C1087.54,679.537 1086.38,678.649 1084.86,678.649Z" style="fill:white;fill-rule:nonzero;"/>
                    <path d="M1092.37,685.297C1094.42,685.297 1095.91,683.917 1095.91,681.973C1095.91,680.029 1094.42,678.649 1092.37,678.649C1090.32,678.649 1088.82,680.029 1088.82,681.973C1088.82,683.917 1090.32,685.297 1092.37,685.297ZM1092.37,683.761C1091.44,683.761 1090.72,683.089 1090.72,681.973C1090.72,680.857 1091.44,680.185 1092.37,680.185C1093.31,680.185 1094.02,680.857 1094.02,681.973C1094.02,683.089 1093.31,683.761 1092.37,683.761Z" style="fill:white;fill-rule:nonzero;"/>
                    <path d="M1105.43,678.649C1104.46,678.649 1103.62,679.045 1103.1,679.705C1102.64,678.997 1101.88,678.649 1100.98,678.649C1100.15,678.649 1099.43,678.937 1098.95,679.489L1098.95,678.745L1097.16,678.745L1097.16,685.201L1099.03,685.201L1099.03,681.961C1099.03,680.809 1099.62,680.269 1100.45,680.269C1101.23,680.269 1101.67,680.749 1101.67,681.793L1101.67,685.201L1103.54,685.201L1103.54,681.961C1103.54,680.809 1104.13,680.269 1104.97,680.269C1105.73,680.269 1106.2,680.749 1106.2,681.793L1106.2,685.201L1108.07,685.201L1108.07,681.505C1108.07,679.537 1106.96,678.649 1105.43,678.649Z" style="fill:white;fill-rule:nonzero;"/>
                    <path d="M1112.35,678.649C1111.32,678.649 1110.28,678.925 1109.57,679.429L1110.24,680.737C1110.71,680.365 1111.42,680.137 1112.1,680.137C1113.11,680.137 1113.59,680.605 1113.59,681.409L1112.1,681.409C1110.13,681.409 1109.33,682.201 1109.33,683.341C1109.33,684.457 1110.23,685.297 1111.74,685.297C1112.69,685.297 1113.36,684.985 1113.71,684.397L1113.71,685.201L1115.46,685.201L1115.46,681.517C1115.46,679.561 1114.32,678.649 1112.35,678.649ZM1112.21,684.037C1111.55,684.037 1111.15,683.725 1111.15,683.257C1111.15,682.825 1111.43,682.501 1112.3,682.501L1113.59,682.501L1113.59,683.161C1113.37,683.749 1112.83,684.037 1112.21,684.037Z" style="fill:white;fill-rule:nonzero;"/>
                    <rect x="1117.15" y="676.297" width="1.872" height="8.904" style="fill:white;fill-rule:nonzero;"/>
                    <path d="M1121.7,677.845C1122.4,677.845 1122.86,677.389 1122.86,676.765C1122.86,676.189 1122.4,675.757 1121.7,675.757C1121,675.757 1120.54,676.213 1120.54,676.801C1120.54,677.389 1121,677.845 1121.7,677.845ZM1120.76,685.201L1122.64,685.201L1122.64,678.745L1120.76,678.745L1120.76,685.201Z" style="fill:white;fill-rule:nonzero;"/>
                    <path d="M1128.98,678.745L1127.14,683.137L1125.35,678.745L1123.42,678.745L1126.13,685.201L1128.06,685.201L1130.78,678.745L1128.98,678.745Z" style="fill:white;fill-rule:nonzero;"/>
                    <path d="M1137.7,681.997C1137.7,679.921 1136.23,678.649 1134.34,678.649C1132.37,678.649 1130.89,680.041 1130.89,681.973C1130.89,683.893 1132.34,685.297 1134.58,685.297C1135.74,685.297 1136.64,684.937 1137.24,684.253L1136.24,683.173C1135.8,683.593 1135.31,683.797 1134.62,683.797C1133.64,683.797 1132.96,683.305 1132.78,682.501L1137.66,682.501C1137.67,682.345 1137.7,682.141 1137.7,681.997ZM1134.35,680.065C1135.19,680.065 1135.8,680.593 1135.93,681.409L1132.75,681.409C1132.88,680.581 1133.5,680.065 1134.35,680.065Z" style="fill:white;fill-rule:nonzero;"/>
                </g>
                <g transform="matrix(0.505935,0,0,0.505935,138.047,469.372)">
                    <path d="M1194.68,713.67L1147.41,760.938L809.161,422.686L480.698,751.149L480.698,1017.12L744.691,1017.12L744.691,1083.97L413.852,1083.97L413.852,723.46L809.161,328.15C937.668,456.657 1066.17,585.164 1194.68,713.67Z" style="fill-opacity:0.280827;fill-rule:nonzero;"/>
                </g>
            </g>
        </g>
    </g>
</svg>
