<?xml version="1.0" encoding="UTF-8" standalone="no"?>
<!DOCTYPE svg PUBLIC "-//W3C//DTD SVG 1.1//EN" "http://www.w3.org/Graphics/SVG/1.1/DTD/svg11.dtd">
<svg width="100%" height="100%" viewBox="0 0 114 33" version="1.1" xmlns="http://www.w3.org/2000/svg" xmlns:xlink="http://www.w3.org/1999/xlink" xml:space="preserve" xmlns:serif="http://www.serif.com/" style="fill-rule:evenodd;clip-rule:evenodd;stroke-linejoin:round;stroke-miterlimit:1.41421;">
    <g transform="matrix(1,0,0,1,-6362.29,-1936.88)">
        <g transform="matrix(1,0,0,1,4723.06,1252.14)">
            <g transform="matrix(0.0852757,0,0,0.0852757,1608.07,629.573)">
                <g transform="matrix(19.486,0,0,19.486,-20467.4,-12323.6)">
                    <text x="1080.07px" y="685.201px" style="font-family:'Montserrat-Bold', 'Montserrat';font-weight:700;font-size:12px;fill:white;">homaliv<tspan x="1130.51px " y="685.201px ">e</tspan></text>
                </g>
                <g transform="matrix(0.505935,0,0,0.505935,155.526,480.225)">
                    <path d="M1193.99,714.361L1148.1,760.252L809.157,421.311L479.721,750.748L479.721,1018.1L744.696,1018.1L744.696,1083L414.821,1083L414.821,723.865L809.157,329.53C937.434,457.807 1065.71,586.084 1193.99,714.361Z" style="fill-opacity:0.27451;fill-rule:nonzero;"/>
                </g>
            </g>
        </g>
    </g>
</svg>
