<?xml version="1.0" encoding="UTF-8" standalone="no"?><!DOCTYPE svg PUBLIC "-//W3C//DTD SVG 1.1//EN" "http://www.w3.org/Graphics/SVG/1.1/DTD/svg11.dtd"><svg width="100%" height="100%" viewBox="0 0 89 25" version="1.1" xmlns="http://www.w3.org/2000/svg" xmlns:xlink="http://www.w3.org/1999/xlink" xml:space="preserve" xmlns:serif="http://www.serif.com/" style="fill-rule:evenodd;clip-rule:evenodd;stroke-linejoin:round;stroke-miterlimit:1.41421;"><g><path d="M20.085,16.054c-0.882,0 -1.675,0.269 -2.303,0.808l0,-3.575l-3.379,0l0,11.097l3.379,0l0,-3.843c0,-1.212 0.584,-1.645 1.272,-1.645c0.613,0 1.002,0.388 1.002,1.405l0,4.083l3.379,0l0,-4.666c0,-2.572 -1.465,-3.664 -3.35,-3.664Z" style="fill:#333;fill-rule:nonzero;"/><path d="M29.373,24.534c2.781,0 4.755,-1.765 4.755,-4.248c0,-2.482 -1.974,-4.232 -4.755,-4.232c-2.767,0 -4.756,1.75 -4.756,4.232c0,2.483 1.989,4.248 4.756,4.248Zm0,-2.632c-0.748,0 -1.331,-0.554 -1.331,-1.616c0,-1.061 0.583,-1.6 1.331,-1.6c0.747,0 1.331,0.539 1.331,1.6c0,1.062 -0.584,1.616 -1.331,1.616Z" style="fill:#333;fill-rule:nonzero;"/><path d="M46.018,16.054c-1.122,0 -2.079,0.449 -2.737,1.241c-0.568,-0.852 -1.496,-1.241 -2.557,-1.241c-0.898,0 -1.705,0.299 -2.319,0.912l0,-0.762l-3.215,0l0,8.18l3.38,0l0,-3.993c0,-1.092 0.464,-1.495 1.062,-1.495c0.568,0 0.912,0.388 0.912,1.405l0,4.083l3.38,0l0,-3.993c0,-1.092 0.464,-1.495 1.062,-1.495c0.538,0 0.912,0.388 0.912,1.405l0,4.083l3.38,0l0,-4.666c0,-2.572 -1.406,-3.664 -3.26,-3.664Z" style="fill:#333;fill-rule:nonzero;"/><path d="M54.407,16.054c-1.271,0 -2.721,0.329 -3.678,0.927l1.076,2.229c0.539,-0.404 1.361,-0.643 2.094,-0.643c0.957,0 1.436,0.329 1.54,0.957l-1.361,0c-2.542,0 -3.738,0.882 -3.738,2.467c0,1.406 1.032,2.543 3.036,2.543c1.151,0 1.929,-0.404 2.318,-1.227l0,1.077l3.14,0l0,-4.397c0,-2.722 -1.615,-3.933 -4.427,-3.933Zm-0.014,6.446c-0.509,0 -0.808,-0.284 -0.808,-0.658c0,-0.449 0.314,-0.688 1.032,-0.688l0.837,0l0,0.568c-0.179,0.538 -0.598,0.778 -1.061,0.778Z" style="fill:#333;fill-rule:nonzero;"/><rect x="60.3" y="13.287" width="3.38" height="11.097" style="fill:#333;fill-rule:nonzero;"/><path d="M66.865,15.546c1.241,0 2.034,-0.748 2.034,-1.78c0,-0.972 -0.793,-1.66 -2.034,-1.66c-1.241,0 -2.034,0.748 -2.034,1.72c0,0.972 0.793,1.72 2.034,1.72Zm-1.69,8.838l3.38,0l0,-8.18l-3.38,0l0,8.18Z" style="fill:#333;fill-rule:nonzero;"/><path d="M75.958,16.204l-1.765,4.381l-1.645,-4.381l-3.47,0l3.291,8.18l3.499,0l3.29,-8.18l-3.2,0Z" style="fill:#333;fill-rule:nonzero;"/><path d="M88.161,20.286c0,-2.766 -2.079,-4.232 -4.501,-4.232c-2.647,0 -4.636,1.75 -4.636,4.232c0,2.438 1.944,4.248 4.95,4.248c1.63,0 2.781,-0.449 3.574,-1.316l-1.765,-1.78c-0.538,0.404 -0.957,0.598 -1.705,0.598c-0.837,0 -1.405,-0.329 -1.645,-0.957l5.683,0c0.015,-0.239 0.045,-0.553 0.045,-0.793Zm-4.471,-1.929c0.688,0 1.181,0.404 1.316,1.092l-2.632,0c0.134,-0.688 0.613,-1.092 1.316,-1.092Z" style="fill:#333;fill-rule:nonzero;"/><path d="M25.212,12.452l-1.485,1.485l-10.967,-10.967l-10.66,10.66l0,8.651l8.574,0l0,2.1l-10.674,0l0,-11.621l12.76,-12.76c4.151,4.151 8.301,8.302 12.452,12.452Z" style="fill-opacity:0.117647;fill-rule:nonzero;"/></g></svg>